<?xml version="1.0" encoding="utf-8"?>
<svg xmlns="http://www.w3.org/2000/svg" viewBox="-818.6424 43.8745 553.1 480.6399" width="553.1px" height="480.64px" preserveAspectRatio="none"><g id="Layer_1-2" data-name="Layer 1" transform="matrix(1, 0, 0, 1, -909.9524061374723, -898.895521207087)"><path d="M364.24,1229.42c-25.16,44.53-48.44,85.73-74.88,132.5H610.12l36.19,63.13H179.86c48-83.82,94.83-165.56,145.22-253.56Z" transform="translate(-1.9 -3.59)"/><path d="M 327.44 1019.75 C 378.65 1108.54 425.89 1190.42 475.76 1276.8899999999999 L 404.49 1276.8899999999999 L 327.28000000000003 1146.8899999999999 C 272 1242.4 218.67 1334.59 165.21 1427 L 93.21000000000001 1427 Z" transform="translate(-1.9 -3.59)"/><g><path d="M 332.04 1004.41 L 368.79 942.77 L 599.58 1343.41 L 309.91 1343.41 L 339.91 1289.55 L 495.15 1289.55 L 332.04 1004.41 Z" id="object-0"/><path class="cls-2" d="M 199.48 1411.64 C 345.83 1375.64 491.82 1380.13 637.53 1415.55" style="fill: none; stroke: rgb(0, 0, 0); stroke-linecap: round; stroke-linejoin: round; stroke-width: 2px;" id="object-1"/><path class="cls-2" d="M 324.63 1102.65 L 113.43 1411.65" style="fill: none; stroke: rgb(0, 0, 0); stroke-linecap: round; stroke-linejoin: round; stroke-width: 2px;" id="object-2"/><path class="cls-2" d="M 324.63 1028.34 C 331.82 1131.34 382.99 1208.34 465.44 1266.92" style="fill: none; stroke: rgb(0, 0, 0); stroke-linecap: round; stroke-linejoin: round; stroke-width: 2px;" id="object-3"/></g><path class="cls-2" d="M373.47,953.7q47.89,228.46,219,387.21" transform="translate(-1.9 -3.59)" style="fill: none; stroke: rgb(0, 0, 0); stroke-linecap: round; stroke-linejoin: round; stroke-width: 2px;"/><path class="cls-2" d="M529.92,1309.62l-211.21,31.29" transform="translate(-1.9 -3.59)" style="fill: none; stroke: rgb(0, 0, 0); stroke-linecap: round; stroke-linejoin: round; stroke-width: 2px;"/><path class="cls-2" d="M326.53,1180.55,256.13,1380" transform="translate(-1.9 -3.59)" style="fill: none; stroke: rgb(0, 0, 0); stroke-linecap: round; stroke-linejoin: round; stroke-width: 2px;"/></g></svg>